<mxfile host="app.diagrams.net" modified="2023-10-31T07:09:31.063Z" agent="Mozilla/5.0 (Windows NT 10.0; Win64; x64) AppleWebKit/537.36 (KHTML, like Gecko) Chrome/118.0.0.0 Safari/537.36 Edg/118.0.2088.76" version="21.7.5" etag="k6SL1dcqRXn5ZtSZ3CC1" type="github">
  <diagram name="第 1 页" id="cDUXWf98xXfZZ_BNWmPM">
    <mxGraphModel>
      <root>
        <mxCell id="0" />
        <mxCell id="1" parent="0" />
      </root>
    </mxGraphModel>
  </diagram>
</mxfile>
